# xmcd
#
# Track frame offsets:
#	150
#	12030
#	26894
#	40417
#	52183
#	63230
#	75420
#	86675
#	96635
#	107043
#	119759
#	131491
#	142379
#	153527
#	166290
#	178477
#	189755
#	201294
#	210075
#	222009
#	234447
#	244920
#	255114
#	266014
#	278882
#
# Disc length: 3861 seconds
#
# Revision: 2
# Processed by: cddbd v1.5.2PL0 Copyright (c) Steve Scherf et al.
# Submitted via: EZCDAudioConverter 5.0.0.1
#
DISCID=6e0f1319
DTITLE=Various New Orleans Artists - Walking To New Orleans - Tipitina
DYEAR=2009
DGENRE=blues
TTITLE0=Fats Domino - The Fat Man
TTITLE1=Professor Longhair - Longhair's Blues Rhumba
TTITLE2=Edgar Blanchard with Tommy Ridgely - She'll Be Mine After Awhile
TTITLE3=Papa Lightfoot with Tommy Ridgely - Coming Back Home
TTITLE4=Archibald - Shake Baby Shake
TTITLE5=Archibald - Ballin' With Archie
TTITLE6=Archibald - Crescent City Bounce
TTITLE7=Smiley Lewis - Tee-Nah-Nah
TTITLE8=Smiley Lewis - Dirty People
TTITLE9=Ray Lewis with Paul Gayten - Jealous Blues
TTITLE10=Archibald - Early Morning Blues
TTITLE11=Smiley Lewis - The Bells Are Ringing
TTITLE12=Lloyd Price with Edward Frank - So Long
TTITLE13=Dave Bartholomew - Who Drank My Beer While I Was In The Rear
TTITLE14=Blazer Boy with Salvador Doucette - Mornin' Train
TTITLE15=Lil Willie Gibson with Salvador Doucette - Brother Bill
TTITLE16=Fats Domino - Please Don't Leave Me
TTITLE17=Fats Domino - Domino Stomp
TTITLE18=Professor Longhair - Tipitina
TTITLE19=Champion Jack Dupree - Shim Sham Shimmy
TTITLE20=Little Sonny Jones - Winehead Baby
TTITLE21=Little Sonny Jones - Tend To Your Business Blues
TTITLE22=James Booker - Doin' The Hambone
TTITLE23=Lloyd Lambert with Lawrence Cotton - King Cotton
TTITLE24=Guitar Slim with Lawrence Cotton - Quicksand
EXTD=
EXTT0=
EXTT1=
EXTT2=
EXTT3=
EXTT4=
EXTT5=
EXTT6=
EXTT7=
EXTT8=
EXTT9=
EXTT10=
EXTT11=
EXTT12=
EXTT13=
EXTT14=
EXTT15=
EXTT16=
EXTT17=
EXTT18=
EXTT19=
EXTT20=
EXTT21=
EXTT22=
EXTT23=
EXTT24=
PLAYORDER=
